<svg version="1.1" id="Capa_1" xmlns="http://www.w3.org/2000/svg" xmlns:xlink="http://www.w3.org/1999/xlink" x="0px" y="0px"
	 viewBox="0 0 1200 1200" enable-background="new 0 0 1200 1200" xml:space="preserve">
<g>
	<g id="XMLID_9_">
		<path fill="#1A1E2D" d="M1150,374.391v658.591c0,3.473-1.833,6.657-4.824,8.362c-2.991,1.737-6.657,1.737-9.648,0L879.591,893.147
			l-269.927,159.679c-0.096,0.064-0.225,0.096-0.322,0.161c-0.547,0.289-1.094,0.515-1.705,0.708
			c-0.193,0.064-0.386,0.129-0.579,0.193c-0.74,0.161-1.479,0.289-2.283,0.289s-1.576-0.129-2.316-0.289
			c-0.193-0.064-0.386-0.129-0.579-0.193c-0.611-0.193-1.158-0.418-1.705-0.708c-0.096-0.064-0.225-0.096-0.322-0.161
			l-272.66-161.93l-262.69,153.794c-2.991,1.737-6.689,1.737-9.68,0.032c-2.991-1.737-4.824-4.921-4.824-8.362V377.736
			c0-3.409,1.801-6.593,4.76-8.33L322.371,212.75c0.096-0.064,0.225-0.064,0.354-0.129c0.515-0.289,1.093-0.515,1.672-0.708
			c0.193-0.064,0.386-0.129,0.579-0.161c0.74-0.193,1.479-0.322,2.283-0.322c0.032,0,0.064,0.032,0.096,0.032
			c0.772,0,1.512,0.096,2.219,0.289c0.193,0.032,0.386,0.129,0.579,0.193c0.579,0.161,1.158,0.418,1.672,0.708
			c0.129,0.064,0.225,0.064,0.354,0.129l272.596,161.93l42.324-25.053c2.766-1.608,6.014-1.705,8.748-0.515
			c-14.923-27.787-25.536-54.77-25.536-75.385c0-70.529,57.407-127.936,127.936-127.936c50.01,0,93.395,28.881,114.396,70.818
			c3.023-3.087,7.847-3.924,11.739-1.64l260.825,151.028C1148.167,367.766,1150,370.95,1150,374.391z M1130.703,1016.259V379.955
			l-250.63-145.142c3.924,12.285,6.078,25.375,6.078,38.947c0,1.254-0.032,2.509-0.129,3.795l213.549,125.202
			c2.959,1.737,4.76,4.921,4.76,8.33v545.192c0,3.473-1.833,6.657-4.856,8.362c-2.991,1.737-6.689,1.705-9.68-0.032L889.207,846.964
			v29.427L1130.703,1016.259z M1085.035,939.426V667.248c-9.841,2.83-19.393,1.608-28.173,0.482
			c-9.359-1.19-18.235-2.316-27.691,1.029c-3.313,1.158-6.657,3.409-10.163,5.757c-3.023,2.026-6.143,4.117-9.713,5.885
			c-24.185,12.125-48.949,2.316-72.877-7.14c-16.756-6.657-32.708-12.929-47.212-11.353v162.702L1085.035,939.426z
			 M1085.035,646.376V416.618l-53.323-31.26c-0.772-0.032-1.576-0.129-2.348-0.354c-7.751-2.251-30.81-7.333-43.964-3.699
			c-2.187,0.611-4.535,1.544-6.979,2.509c-5.274,2.09-11.256,4.438-18.139,4.535c-9.423,0.129-15.791-2.702-20.937-4.985
			c-5.307-2.38-7.751-3.473-12.896-1.769c-6.979,2.316-9.295,14.633-9.97,24.539c-0.965,13.701-9.809,26.629-17.592,38.014
			c-3.57,5.21-6.947,10.163-9.198,14.601c-0.161,0.322-0.322,0.579-0.482,0.868v182.899c18.396-1.383,36.599,5.757,54.32,12.8
			c20.905,8.265,40.684,16.08,57.15,7.847c2.476-1.254,4.953-2.927,7.59-4.663c4.149-2.798,8.876-5.982,14.505-7.944
			c13.797-4.856,25.889-3.313,36.535-1.962C1070.498,650.042,1077.799,650.653,1085.035,646.376z M990.257,361.044l-101.05-59.24
			v122.051c4.213-6.689,7.622-13.282,8.008-19.071c1.608-22.995,9.423-36.953,23.188-41.488c12.221-4.052,20.294-0.45,26.79,2.444
			c4.277,1.897,7.59,3.409,12.768,3.313c3.377-0.032,7.075-1.512,11.385-3.184c2.798-1.126,5.725-2.251,8.909-3.152
			C983.406,361.848,986.783,361.334,990.257,361.044z M869.911,876.455V847.06L614.424,998.217v29.395L869.911,876.455z
			 M869.911,824.644V670.111c-7.461,5.918-13.765,14.312-20.294,23.092c-9.841,13.186-19.972,26.822-35.699,34.38
			c-2.895,1.415-5.853,2.509-8.683,3.602c-6.078,2.316-11.353,4.31-13.701,7.912c-1.544,2.412-2.123,6.078-2.766,10.291
			c-0.579,3.891-1.254,8.33-2.959,12.704c-3.216,8.265-9.198,14.151-14.472,19.393c-3.956,3.891-7.686,7.59-9.648,11.61
			c-3.473,7.108-2.09,16.82-0.322,25.375c1.994,9.552,2.894,18.621,3.795,27.401c1.319,13.315,2.573,25.15,7.14,36.503
			L869.911,824.644z M869.911,647.47v-163.57c-1.254,1.126-2.509,2.219-3.795,3.377c-2.444,2.155-5.081,4.503-7.944,7.204
			c-15.212,14.344-22.384,26.661-22.641,38.722c-0.032,2.605,0.161,5.532,0.354,8.619c0.708,10.903,1.672,25.729-10.099,34.219
			c-9.841,9.648-21.194,1.64-25.568-1.415c-0.933-0.675-2.219-1.544-3.184-2.123c-4.599,3.57-8.072,9.359-11.739,15.469
			c-0.901,1.512-1.801,2.991-2.702,4.47c-12.704,20.422-30.489,37.5-51.393,49.431c-4.76,2.701-10.581,5.403-17.238,5.081
			c-8.748-0.45-14.794-5.757-19.65-10.002c-2.766-2.444-5.403-4.76-7.654-5.403c-4.245-1.222-10.195,2.894-14.344,7.14
			c-1.351,1.351-2.605,2.766-3.924,4.181c-5.21,5.725-11.128,12.189-19.682,15.662c-4.052,1.64-8.394,2.444-12.864,2.444
			c-6.882,0-14.151-1.93-21.419-5.66V975.8l141.122-83.49c-6.593-14.891-8.137-29.91-9.584-44.511
			c-0.836-8.298-1.705-16.852-3.473-25.407c-2.476-11.739-4.149-25.439,1.865-37.789c3.409-6.947,8.748-12.221,13.443-16.852
			c4.277-4.245,8.33-8.233,10.034-12.671c0.933-2.38,1.383-5.371,1.865-8.587c0.868-5.628,1.833-11.996,5.693-17.914
			c5.757-8.876,14.923-12.35,22.995-15.437c2.573-0.965,5.017-1.898,7.172-2.959c11.449-5.467,19.747-16.659,28.559-28.495
			C843.989,668.406,854.184,654.738,869.911,647.47z M869.911,454.568V330.717c-32.032,68.567-100.535,150.095-104.298,154.565
			c-1.833,2.155-4.535,3.409-7.365,3.409c-2.862,0-5.532-1.254-7.365-3.409c-2.38-2.83-30.585-36.374-59.112-77.958l-77.347,48.756
			v176.403c5.532,4.31,17.431,12.06,27.047,8.137c4.503-1.801,8.49-6.143,12.671-10.774c1.447-1.576,2.895-3.12,4.374-4.631
			c10.742-10.999,22.641-15.309,33.447-12.189c6.4,1.833,10.999,5.853,15.083,9.423c3.023,2.637,5.853,5.146,7.944,5.242
			c1.897,0.193,5.242-1.801,6.657-2.605c18.139-10.324,33.544-25.15,44.575-42.838c0.836-1.383,1.672-2.798,2.509-4.181
			c4.76-7.944,10.163-16.917,19.232-22.802c9.52-6.143,18.525,0.193,23.349,3.57c0.804,0.579,1.865,1.319,2.734,1.865
			c0.064-0.032,0.129-0.096,0.193-0.129c3.152-2.058,2.991-8.265,2.38-17.496c-0.225-3.377-0.45-6.818-0.386-10.259
			c0.354-17.367,9.745-34.477,28.688-52.39c3.023-2.83,5.821-5.307,8.394-7.59C860.294,466.661,865.247,462.223,869.911,454.568z
			 M866.855,273.76c0-59.884-48.724-108.64-108.607-108.64c-59.916,0-108.64,48.756-108.64,108.64
			c0,47.18,72.587,145.946,108.64,190.168C794.3,419.706,866.855,320.908,866.855,273.76z M614.424,433.278l66.637-42.002
			c-6.818-10.452-13.443-21.162-19.554-31.904c-0.386,2.766-1.962,5.371-4.567,6.915l-42.517,25.15V433.278z M595.128,1027.579
			v-29.363l-258.22-153.375v29.363L595.128,1027.579z M595.128,975.768V641.23c-5.821-5.403-11.16-11.192-16.37-16.82
			c-7.622-8.265-14.794-16.048-23.091-22.448c-13.443-10.356-33.254-16.981-47.309-8.426l-1.093,0.675
			c-2.702,1.705-6.432,4.084-11.449,4.342c-4.181,0.225-8.33-1.061-12.704-3.956c-18.493-12.06-24.732-39.268-13.347-58.179
			c2.09-3.506,4.535-6.464,6.882-9.359c3.441-4.149,6.368-7.751,7.011-11.353c1.222-7.043-6.657-14.537-13.829-18.782
			c-2.348-1.415-4.76-2.734-7.204-4.052c-8.716-4.695-18.589-10.034-25.15-19.522c-7.397-10.613-8.426-23.124-9.327-34.187
			c-0.74-8.844-1.415-17.174-5.017-23.542c-3.152-5.628-8.909-10.581-15.019-15.855c-10.645-9.166-22.706-19.554-22.352-36.374
			c0.322-15.212,6.014-21.58,13.829-25.6l-62.682-37.982v452.504c11.192,3.666,21.998,12.768,31.164,26.629
			c6.85,10.356,12.961,14.344,14.73,13.218c1.415-0.901,2.798-4.792,3.827-7.622c8.33-23.252,20.101-36.149,33.737-51.039
			c3.699-4.02,7.493-8.169,11.449-12.8c5.371-6.336,13.443-8.716,22.062-6.497c14.698,3.795,28.012,19.843,31.743,38.207
			c2.573,10.806-0.515,19.811-8.201,25.086c3.731,5.532,11.546,14.247,17.656,21.065c14.537,16.241,31.035,34.669,37.725,52.294
			c8.233,21.741,10.613,40.33,7.301,56.828c-2.702,13.475-10.484,19.94-19.747,23.67L595.128,975.768z M595.128,613.668V456.176
			L420.365,350.367c-1.351,0.482-2.669,0.933-3.859,1.383c-11.288,3.956-11.288,3.956-11.449,12.06
			c-0.161,7.204,5.821,12.864,15.662,21.355c7.075,6.111,14.408,12.414,19.232,20.969c5.66,10.066,6.593,21.419,7.429,31.421
			c0.772,9.487,1.512,18.46,5.918,24.796c3.956,5.692,11.031,9.52,18.493,13.54c2.669,1.447,5.371,2.927,7.944,4.47
			c16.852,10.066,25.407,24.507,22.931,38.69c-1.512,8.587-6.593,14.794-11.096,20.261c-1.994,2.444-3.891,4.76-5.274,7.043
			c-6.175,10.259-2.669,25.568,7.365,32.097c0.547,0.354,0.933,0.579,1.19,0.708c0.579-0.289,1.447-0.868,2.09-1.254l1.383-0.868
			c23.349-14.215,51.843-3.698,69.114,9.616c9.616,7.429,17.688,16.209,25.504,24.7C593.68,612.125,594.388,612.897,595.128,613.668
			z M595.128,433.632v-42.195l-258.22-153.408v39.236L595.128,433.632z M521.19,903.889c2.573-12.832,0.482-27.948-6.432-46.183
			c-5.435-14.279-21.291-32.032-34.058-46.28c-18.171-20.294-29.138-32.547-23.027-43.932c1.286-2.38,3.506-4.084,6.111-4.76
			c3.216-0.836,4.181-1.319,3.055-5.95c-0.032-0.129-0.064-0.257-0.096-0.386c-2.605-13.025-11.932-22.03-17.689-23.51
			c-1.833-0.45-2.251,0-2.541,0.354c-4.245,4.888-8.137,9.166-11.9,13.282c-13.218,14.472-22.802,24.925-29.781,44.446
			c-1.994,5.564-4.695,13.089-11.771,17.528c-6.078,3.827-22.255,9.584-41.102-18.911c-3.988-6.078-9.327-12.092-15.051-15.855
			v48.659l160.129,95.1c0.515-0.096,1.061-0.193,1.544-0.322C515.143,913.891,519.517,912.154,521.19,903.889z M317.611,874.172
			v-29.845L108.147,961.682c-2.991,1.672-6.657,1.64-9.584-0.096c-2.959-1.737-4.792-4.888-4.792-8.33V414.528
			c0-3.441,1.801-6.593,4.76-8.33l219.08-129.03V237.9L69.297,383.268v636.24L317.611,874.172z M317.611,822.232v-50.075
			c-5.853,3.538-10.677,10.517-15.695,17.914l-2.251,3.28c-12.704,18.364-28.462,26.629-43.289,22.609
			c-16.273-4.438-23.252-25.246-29.395-43.61c-0.772-2.219-1.608-4.76-2.476-7.172c-4.02,12.478-8.298,25.118-19.039,25.729
			c-6.207,0.386-11.321-3.57-15.148-11.674c-6.143-10.259-9.97-22.062-13.636-33.479c-3.57-10.999-6.947-21.419-12.092-29.845
			c-3.023-4.985-6.175-10.131-10.259-12.961c-2.702-1.897-6.432-2.509-8.072-1.286c-1.737,1.254-2.991,4.921-4.213,8.491
			c-0.515,1.479-1.029,2.959-1.576,4.374c-5.21,13.282-15.63,22.481-27.401,24.314v197.983L317.611,822.232z M317.611,751.414
			V299.553L113.068,420.027v298.775c4.213-2.09,7.654-6.786,9.423-11.321c0.45-1.158,0.868-2.38,1.286-3.634
			c1.994-5.757,4.47-12.961,11.128-17.817c9.809-7.108,22.384-4.567,30.489,1.094c7.397,5.146,11.964,12.671,15.662,18.718
			c6.336,10.388,10.227,22.384,13.958,33.994c2.894,8.909,5.66,17.431,9.327,24.828c0.804-2.316,1.544-4.567,2.058-6.175
			c2.09-6.497,3.313-10.066,5.21-12.704c5.146-7.333,10.774-8.233,14.569-7.686c10.131,1.415,13.894,12.607,19.071,28.109
			c3.473,10.259,9.873,29.395,16.177,31.132c7.493,2.026,16.466-6.4,22.384-14.955l2.123-3.152
			C293.233,768.491,302.335,755.144,317.611,751.414z"/>
		<path fill="#EFE8D8" d="M1130.703,379.955v636.304L889.207,876.391v-29.427l200.588,117.645c2.991,1.737,6.689,1.769,9.68,0.032
			c3.023-1.705,4.856-4.888,4.856-8.362V411.087c0-3.409-1.801-6.593-4.76-8.33L886.023,277.555
			c0.096-1.286,0.129-2.541,0.129-3.795c0-13.572-2.155-26.661-6.078-38.947L1130.703,379.955z"/>
		<path fill="#58935C" d="M1085.035,667.248v272.178L889.207,824.612V661.91c14.505-1.576,30.456,4.695,47.212,11.353
			c23.928,9.455,48.692,19.264,72.877,7.14c3.57-1.769,6.689-3.859,9.713-5.885c3.506-2.348,6.85-4.599,10.163-5.757
			c9.455-3.345,18.332-2.219,27.691-1.029C1065.642,668.857,1075.194,670.079,1085.035,667.248z"/>
		<path fill="#6AC4CE" d="M1085.035,416.618v229.758c-7.236,4.277-14.537,3.666-25.729,2.219
			c-10.645-1.351-22.738-2.894-36.535,1.962c-5.628,1.962-10.356,5.146-14.505,7.944c-2.637,1.737-5.114,3.409-7.59,4.663
			c-16.466,8.233-36.245,0.418-57.15-7.847c-17.721-7.043-35.924-14.183-54.32-12.8V459.618c0.161-0.289,0.322-0.547,0.482-0.868
			c2.251-4.438,5.628-9.391,9.198-14.601c7.783-11.385,16.627-24.314,17.592-38.014c0.675-9.906,2.991-22.223,9.97-24.539
			c5.146-1.705,7.59-0.611,12.896,1.769c5.146,2.283,11.514,5.114,20.937,4.985c6.882-0.096,12.864-2.444,18.139-4.535
			c2.444-0.965,4.792-1.898,6.979-2.509c13.154-3.634,36.213,1.447,43.964,3.699c0.772,0.225,1.576,0.322,2.348,0.354
			L1085.035,416.618z"/>
		<path fill="#58935C" d="M889.207,301.804l101.05,59.24c-3.473,0.289-6.85,0.804-10.002,1.672c-3.184,0.9-6.111,2.026-8.909,3.152
			c-4.31,1.672-8.008,3.152-11.385,3.184c-5.178,0.096-8.49-1.415-12.768-3.313c-6.497-2.894-14.569-6.496-26.79-2.444
			c-13.765,4.535-21.58,18.493-23.188,41.488c-0.386,5.789-3.795,12.382-8.008,19.071V301.804z"/>
		<polygon fill="#EFE8D8" points="869.911,847.06 869.911,876.455 614.424,1027.612 614.424,998.217 		"/>
		<path fill="#58935C" d="M869.911,670.111v154.533l-97.608,57.729c-4.567-11.353-5.821-23.188-7.14-36.503
			c-0.901-8.78-1.801-17.849-3.795-27.401c-1.769-8.555-3.152-18.267,0.322-25.375c1.962-4.02,5.693-7.719,9.648-11.61
			c5.274-5.242,11.256-11.128,14.472-19.393c1.705-4.374,2.38-8.812,2.959-12.704c0.643-4.213,1.222-7.879,2.766-10.291
			c2.348-3.602,7.622-5.596,13.701-7.912c2.83-1.093,5.789-2.187,8.683-3.602c15.727-7.558,25.857-21.194,35.699-34.38
			C856.146,684.422,862.449,676.028,869.911,670.111z"/>
		<path fill="#6AC4CE" d="M869.911,483.899v163.57c-15.727,7.268-25.922,20.937-35.795,34.219
			c-8.812,11.835-17.11,23.027-28.559,28.495c-2.155,1.061-4.599,1.994-7.172,2.959c-8.072,3.087-17.238,6.561-22.995,15.437
			c-3.859,5.918-4.824,12.285-5.693,17.914c-0.482,3.216-0.933,6.207-1.865,8.587c-1.705,4.438-5.757,8.426-10.034,12.671
			c-4.695,4.631-10.034,9.906-13.443,16.852c-6.014,12.35-4.342,26.05-1.865,37.789c1.769,8.555,2.637,17.11,3.473,25.407
			c1.447,14.601,2.991,29.62,9.584,44.511L614.424,975.8V655.317c7.268,3.731,14.537,5.66,21.419,5.66
			c4.47,0,8.812-0.804,12.864-2.444c8.555-3.473,14.472-9.938,19.682-15.662c1.319-1.415,2.573-2.83,3.924-4.181
			c4.149-4.245,10.099-8.362,14.344-7.14c2.251,0.643,4.888,2.959,7.654,5.403c4.856,4.245,10.903,9.552,19.65,10.002
			c6.657,0.322,12.478-2.38,17.238-5.081c20.905-11.932,38.69-29.009,51.393-49.431c0.901-1.479,1.801-2.959,2.702-4.47
			c3.666-6.111,7.14-11.9,11.739-15.469c0.965,0.579,2.251,1.447,3.184,2.123c4.374,3.055,15.727,11.063,25.568,1.415
			c11.771-8.49,10.806-23.317,10.099-34.219c-0.193-3.087-0.386-6.014-0.354-8.619c0.257-12.06,7.429-24.378,22.641-38.722
			c2.862-2.702,5.5-5.049,7.944-7.204C867.402,486.118,868.656,485.025,869.911,483.899z"/>
		<path fill="#58935C" d="M869.911,330.717v123.852c-4.663,7.654-9.616,12.093-16.595,18.267c-2.573,2.283-5.371,4.76-8.394,7.59
			c-18.943,17.914-28.334,35.023-28.688,52.39c-0.064,3.441,0.161,6.882,0.386,10.259c0.611,9.23,0.772,15.437-2.38,17.496
			c-0.064,0.032-0.129,0.096-0.193,0.129c-0.868-0.547-1.93-1.286-2.734-1.865c-4.824-3.377-13.829-9.713-23.349-3.57
			c-9.069,5.885-14.472,14.858-19.232,22.802c-0.836,1.383-1.672,2.798-2.509,4.181c-11.031,17.688-26.436,32.515-44.575,42.838
			c-1.415,0.804-4.76,2.798-6.657,2.605c-2.09-0.096-4.921-2.605-7.944-5.242c-4.084-3.57-8.683-7.59-15.083-9.423
			c-10.806-3.12-22.706,1.19-33.447,12.189c-1.479,1.512-2.927,3.055-4.374,4.631c-4.181,4.631-8.169,8.973-12.671,10.774
			c-9.616,3.924-21.516-3.827-27.047-8.137V456.08l77.347-48.756c28.527,41.584,56.732,75.128,59.112,77.958
			c1.833,2.155,4.503,3.409,7.365,3.409c2.83,0,5.532-1.254,7.365-3.409C769.375,480.812,837.878,399.284,869.911,330.717z"/>
		<path fill="#BC3333" d="M758.248,165.12c59.884,0,108.607,48.756,108.607,108.64c0,47.148-72.555,145.946-108.607,190.168
			c-36.052-44.221-108.64-142.987-108.64-190.168C649.608,213.876,698.332,165.12,758.248,165.12z M826.622,266.877
			c0-37.725-30.682-68.406-68.374-68.406c-37.725,0-68.406,30.682-68.406,68.406c0,37.693,30.682,68.374,68.406,68.374
			C795.94,335.251,826.622,304.57,826.622,266.877z"/>
		<path fill="#1A1E2D" d="M758.248,198.471c37.693,0,68.374,30.682,68.374,68.406c0,37.693-30.682,68.374-68.374,68.374
			c-37.725,0-68.406-30.682-68.406-68.374C689.842,229.152,720.523,198.471,758.248,198.471z M807.325,266.877
			c0-27.079-21.998-49.11-49.078-49.11c-27.079,0-49.11,22.03-49.11,49.11s22.03,49.078,49.11,49.078
			C785.327,315.955,807.325,293.957,807.325,266.877z"/>
		<path fill="#F2C964" d="M758.248,217.767c27.08,0,49.078,22.03,49.078,49.11s-21.998,49.078-49.078,49.078
			c-27.079,0-49.11-21.998-49.11-49.078S731.168,217.767,758.248,217.767z"/>
		<path fill="#EFE8D8" d="M681.062,391.276l-66.637,42.002v-41.841l42.517-25.15c2.605-1.544,4.181-4.149,4.567-6.915
			C667.618,370.114,674.243,380.823,681.062,391.276z"/>
		<polygon fill="#EFE8D8" points="595.128,998.217 595.128,1027.579 336.908,874.204 336.908,844.841 		"/>
		<path fill="#6AC4CE" d="M595.128,641.23v334.538l-74.774-44.414c9.262-3.731,17.045-10.195,19.747-23.67
			c3.313-16.499,0.933-35.088-7.301-56.828c-6.689-17.624-23.188-36.052-37.725-52.294c-6.111-6.818-13.926-15.534-17.656-21.065
			c7.686-5.274,10.774-14.279,8.201-25.086c-3.731-18.364-17.045-34.412-31.743-38.207c-8.619-2.219-16.692,0.161-22.062,6.497
			c-3.956,4.631-7.751,8.78-11.449,12.8c-13.636,14.891-25.407,27.787-33.737,51.039c-1.029,2.83-2.412,6.722-3.827,7.622
			c-1.769,1.126-7.879-2.862-14.73-13.218c-9.166-13.861-19.972-22.963-31.164-26.629V299.81l62.682,37.982
			c-7.815,4.02-13.508,10.388-13.829,25.6c-0.354,16.82,11.707,27.208,22.352,36.374c6.111,5.274,11.867,10.227,15.019,15.855
			c3.602,6.368,4.277,14.698,5.017,23.542c0.901,11.063,1.93,23.574,9.327,34.187c6.561,9.487,16.434,14.826,25.15,19.522
			c2.444,1.319,4.856,2.637,7.204,4.052c7.172,4.245,15.051,11.739,13.829,18.782c-0.643,3.602-3.57,7.204-7.011,11.353
			c-2.348,2.894-4.792,5.853-6.882,9.359c-11.385,18.911-5.146,46.119,13.347,58.179c4.374,2.894,8.523,4.181,12.704,3.956
			c5.017-0.257,8.748-2.637,11.449-4.342l1.093-0.675c14.054-8.555,33.865-1.93,47.309,8.426c8.297,6.4,15.469,14.183,23.091,22.448
			C583.968,630.038,589.307,635.827,595.128,641.23z"/>
		<path fill="#58935C" d="M595.128,456.176v157.492c-0.74-0.772-1.447-1.544-2.187-2.316c-7.815-8.49-15.888-17.27-25.504-24.7
			c-17.27-13.315-45.765-23.831-69.114-9.616l-1.383,0.868c-0.643,0.386-1.512,0.965-2.09,1.254
			c-0.257-0.129-0.643-0.354-1.19-0.708c-10.034-6.529-13.54-21.837-7.365-32.097c1.383-2.283,3.28-4.599,5.274-7.043
			c4.503-5.467,9.584-11.674,11.096-20.261c2.476-14.183-6.078-28.623-22.931-38.69c-2.573-1.544-5.274-3.023-7.944-4.47
			c-7.461-4.02-14.537-7.847-18.493-13.54c-4.406-6.336-5.146-15.309-5.918-24.796c-0.836-10.002-1.769-21.355-7.429-31.421
			c-4.824-8.555-12.157-14.858-19.232-20.969c-9.841-8.49-15.823-14.151-15.662-21.355c0.161-8.105,0.161-8.105,11.449-12.06
			c1.19-0.45,2.509-0.901,3.859-1.383L595.128,456.176z"/>
		<polygon fill="#EFE8D8" points="595.128,391.436 595.128,433.632 336.908,277.265 336.908,238.029 		"/>
		<path fill="#58935C" d="M514.758,857.705c6.915,18.235,9.005,33.351,6.432,46.183c-1.672,8.265-6.046,10.002-22.609,13.282
			c-0.482,0.129-1.029,0.225-1.544,0.322l-160.129-95.1v-48.659c5.725,3.763,11.063,9.777,15.051,15.855
			c18.846,28.495,35.023,22.738,41.102,18.911c7.075-4.438,9.777-11.964,11.771-17.528c6.979-19.522,16.563-29.974,29.781-44.446
			c3.763-4.117,7.654-8.394,11.9-13.282c0.289-0.354,0.708-0.804,2.541-0.354c5.757,1.479,15.083,10.484,17.689,23.51
			c0.032,0.129,0.064,0.257,0.096,0.386c1.126,4.631,0.161,5.114-3.055,5.95c-2.605,0.675-4.824,2.38-6.111,4.76
			c-6.111,11.385,4.856,23.638,23.027,43.932C493.467,825.673,509.322,843.426,514.758,857.705z"/>
		<path fill="#EFE8D8" d="M317.611,844.327v29.845L69.297,1019.507v-636.24L317.611,237.9v39.268l-219.08,129.03
			c-2.959,1.737-4.76,4.888-4.76,8.33v538.728c0,3.441,1.833,6.593,4.792,8.33c2.927,1.737,6.593,1.769,9.584,0.096L317.611,844.327
			z"/>
		<path fill="#58935C" d="M317.611,772.157v50.075L113.068,936.821V738.839c11.771-1.833,22.191-11.031,27.401-24.314
			c0.547-1.415,1.061-2.894,1.576-4.374c1.222-3.57,2.476-7.236,4.213-8.491c1.64-1.222,5.371-0.611,8.072,1.286
			c4.084,2.83,7.236,7.976,10.259,12.961c5.146,8.426,8.523,18.846,12.092,29.845c3.666,11.417,7.493,23.22,13.636,33.479
			c3.827,8.105,8.941,12.06,15.148,11.674c10.742-0.611,15.019-13.25,19.039-25.729c0.868,2.412,1.705,4.953,2.476,7.172
			c6.143,18.364,13.122,39.172,29.395,43.61c14.826,4.02,30.585-4.245,43.289-22.609l2.251-3.28
			C306.934,782.674,311.758,775.695,317.611,772.157z"/>
		<path fill="#6AC4CE" d="M317.611,299.553v451.861c-15.276,3.731-24.378,17.077-31.678,27.819l-2.123,3.152
			c-5.918,8.555-14.891,16.981-22.384,14.955c-6.304-1.737-12.704-20.872-16.177-31.132c-5.178-15.502-8.941-26.694-19.071-28.109
			c-3.795-0.547-9.423,0.354-14.569,7.686c-1.897,2.637-3.12,6.207-5.21,12.704c-0.515,1.608-1.254,3.859-2.058,6.175
			c-3.666-7.397-6.432-15.92-9.327-24.828c-3.731-11.61-7.622-23.606-13.958-33.994c-3.699-6.046-8.265-13.572-15.662-18.718
			c-8.105-5.66-20.679-8.201-30.489-1.094c-6.657,4.856-9.134,12.06-11.128,17.817c-0.418,1.254-0.836,2.476-1.286,3.634
			c-1.769,4.535-5.21,9.23-9.423,11.321V420.027L317.611,299.553z M285.193,544.458c7.268-12.189-0.193-25.729-3.377-31.518
			l-6.336-11.481c-1.801-3.313-5.21-9.487-12.092-12.028c-3.956-1.447-7.622-1.158-10.292-0.965
			c-0.74,0.064-1.479,0.129-2.219,0.096c-3.377-0.096-7.558-3.473-11.61-6.754l-1.576-1.286
			c-10.484-8.394-20.326-11.063-29.202-7.912c-6.046,2.123-10.099,6.529-13.347,10.034c-1.576,1.705-4.213,4.567-5.242,4.631h-0.032
			c-1.254,0-4.631-3.409-6.464-5.242c-4.728-4.728-11.353-11.192-20.776-10.967c-12.671,0.257-17.045,14.537-20.229,24.957
			c-0.708,2.283-1.383,4.47-1.897,5.692c-0.193,0.45-0.354,0.901-0.45,1.351c-4.631,17.914,11.578,32.225,17.689,37.596
			c14.215,12.543,26.854,15.952,37.628,10.163c1.512-0.836,2.798-1.769,3.827-2.509c0.611-0.45,1.415-1.029,1.737-1.158
			c0.997-0.418,5.467,1.705,7.365,2.605c0.868,0.418,1.705,0.804,2.541,1.19c11.256,5.049,23.51,6.078,34.734,6.078
			c4.084,0,8.04-0.129,11.739-0.257C263.581,556.551,278.278,556.036,285.193,544.458z"/>
		<path fill="#1A1E2D" d="M281.816,512.94c3.184,5.789,10.645,19.329,3.377,31.518c-6.915,11.578-21.612,12.093-27.884,12.318
			c-3.699,0.129-7.654,0.257-11.739,0.257c-11.224,0-23.477-1.029-34.734-6.078c-0.836-0.386-1.672-0.772-2.541-1.19
			c-1.897-0.901-6.368-3.023-7.365-2.605c-0.322,0.129-1.126,0.708-1.737,1.158c-1.029,0.74-2.316,1.672-3.827,2.509
			c-10.774,5.789-23.413,2.38-37.628-10.163c-6.111-5.371-22.32-19.682-17.689-37.596c0.096-0.45,0.257-0.901,0.45-1.351
			c0.515-1.222,1.19-3.409,1.897-5.692c3.184-10.42,7.558-24.7,20.229-24.957c9.423-0.225,16.048,6.239,20.776,10.967
			c1.833,1.833,5.21,5.242,6.464,5.242h0.032c1.029-0.064,3.666-2.927,5.242-4.631c3.248-3.506,7.301-7.912,13.347-10.034
			c8.876-3.152,18.718-0.482,29.202,7.912l1.576,1.286c4.052,3.28,8.233,6.657,11.61,6.754c0.74,0.032,1.479-0.032,2.219-0.096
			c2.669-0.193,6.336-0.482,10.292,0.965c6.882,2.541,10.291,8.716,12.092,12.028L281.816,512.94z M268.63,534.585
			c0.611-1.029,0.901-3.956-3.699-12.318l-6.336-11.481c-0.354-0.643-1.383-2.509-2.026-3.216c-0.418,0-1.383,0.096-2.058,0.129
			c-1.222,0.096-2.637,0.193-4.213,0.161c-9.906-0.289-17.27-6.271-23.188-11.063l-1.479-1.19c-4.663-3.731-8.651-5.532-10.71-4.824
			c-1.544,0.547-3.602,2.798-5.628,4.985c-3.956,4.277-9.423,10.163-18.074,10.774c-9.97,0.675-16.627-6.014-21.484-10.87
			c-1.479-1.479-3.538-3.538-5.081-4.599c-1.415,2.798-2.991,7.879-3.827,10.613c-0.74,2.412-1.447,4.695-2.187,6.657
			c-0.74,4.31,3.152,10.163,11.867,17.849c7.075,6.271,12.961,9.134,15.695,7.654c0.386-0.225,0.997-0.675,1.672-1.158
			c1.479-1.061,3.313-2.412,5.757-3.409c2.573-1.029,5.081-1.479,7.493-1.479c5.918,0,11.224,2.541,15.437,4.535
			c0.74,0.354,1.479,0.708,2.219,1.029c11.224,5.049,25.375,4.567,37.853,4.117C265.285,537.19,267.922,535.742,268.63,534.585z"/>
		<path fill="#58935C" d="M264.931,522.267c4.599,8.362,4.31,11.289,3.699,12.318c-0.708,1.158-3.345,2.605-11.996,2.895
			c-12.478,0.45-26.629,0.933-37.853-4.117c-0.74-0.322-1.479-0.675-2.219-1.029c-4.213-1.994-9.52-4.535-15.437-4.535
			c-2.412,0-4.921,0.45-7.493,1.479c-2.444,0.997-4.277,2.348-5.757,3.409c-0.675,0.482-1.286,0.933-1.672,1.158
			c-2.734,1.479-8.619-1.383-15.695-7.654c-8.716-7.686-12.607-13.54-11.867-17.849c0.74-1.962,1.447-4.245,2.187-6.657
			c0.836-2.734,2.412-7.815,3.827-10.613c1.544,1.061,3.602,3.12,5.081,4.599c4.856,4.856,11.514,11.546,21.484,10.87
			c8.651-0.611,14.119-6.497,18.074-10.774c2.026-2.187,4.084-4.438,5.628-4.985c2.058-0.708,6.046,1.093,10.71,4.824l1.479,1.19
			c5.918,4.792,13.282,10.774,23.188,11.063c1.576,0.032,2.991-0.064,4.213-0.161c0.675-0.032,1.64-0.129,2.058-0.129
			c0.643,0.708,1.672,2.573,2.026,3.216L264.931,522.267z"/>
	</g>
</g>
</svg>
